<svg xmlns="http://www.w3.org/2000/svg" viewBox="0 0 169 42.666" class="$layout/baseline:exact layout/height:baseline:2"><defs><style>.has-dark-background .allianz {
  fill: #fff;
}

</style></defs><path class="allianz" fill="#003781" d="M148 .18c11.911 0 20.82 8.917 20.82 20.824 0 11.923-8.9 20.819-20.82 20.819s-20.828-8.912-20.828-20.82C127.172 9.098 136.089.18 148 .18zm0 3.335c-10.005 0-17.287 7.362-17.287 17.489 0 10.126 7.287 17.488 17.287 17.488s17.283-7.362 17.283-17.488c0-10.085-7.279-17.49-17.283-17.49zM68.947 12.37c5.076 0 6.893 1.733 6.958 6.681l.002.278v9.66c0 1.24.37 1.743 1.358 1.787l.145.003h.286v2.188h-5.813c-1.204 0-1.848-.583-1.907-1.727l-.004-.176v-.285a11.453 11.453 0 0 1-2.726 1.747 9.242 9.242 0 0 1-3.419.643c-3.44 0-5.12-1.865-5.12-5.73 0-3.049 1.214-5.027 3.78-6.056a14.578 14.578 0 0 1 2.403-.768l.973-.21c.805-.168 1.582-.31 2.92-.532l.987-.161v-.454c0-1.777-.609-2.386-2.322-2.386a15.334 15.334 0 0 0-5.842 1.387l-.42.201-1.42-3.89a16.468 16.468 0 0 1 4.31-1.625 21.865 21.865 0 0 1 4.871-.575zM15.721 6.002c1.482 0 2.353.513 2.794 1.847l.057.188 7.094 24.943h-7.14l-1.831-6.543H8.971L7.014 32.98l-6.628.021 7.14-21.348.218-.643c.245-.753.32-1.123.32-1.55 0-.755-.506-1.171-1.448-1.217l-.182-.005h-.84V6.002h10.127zm101.081 6.655v4.2l-8.459 11.856h8.866v4.284h-15.98v-4.2l8.53-12.003h-4.562c-.952 0-1.44.394-1.494 1.221l-.005.16v.362h-2.356v-3.684c0-1.445.636-2.138 2.013-2.193l.183-.003h13.264zM31.895 6c1.21 0 1.962.704 2.028 1.9l.005.175V32.98h-6.372V9.873c0-1.01-.4-1.467-1.338-1.512l-.161-.004h-.42V6.001h6.258zm10.853 0c1.198 0 1.96.704 2.028 1.9l.004.175V32.98h-6.384V9.873c0-1.01-.403-1.467-1.345-1.512l-.162-.004h-.4V6.001h6.259zm11.008 6.656c1.203 0 1.965.7 2.032 1.892l.005.174V32.98h-6.346V16.512c0-1.002-.404-1.493-1.343-1.541l-.161-.004h-.365v-2.31h6.178zm39.551-.244c1.577 0 2.835.424 3.677 1.262l.154.162c.958 1.016 1.224 1.968 1.256 4.69l.004.635V32.98h-6.342V20.103c0-2.045-.332-2.579-1.68-2.579-1.182 0-2.215.47-3.215 1.5l-.2.214V32.98h-6.325V16.512c0-1.002-.407-1.493-1.347-1.541l-.161-.004h-.37v-2.31h6.015c1.236 0 1.893.59 1.953 1.735l.004.176v.81c2.348-2.196 4.095-2.965 6.577-2.965zm49.908-4.916h5.36c1.713 0 2.38.574 2.425 2.257l.003.192V32.5h-5.999V11.819c0-1.42-.22-1.732-1.323-1.754l-.466-.002V7.497h5.36-5.36zm9.782 5.086h3.528c1.689 0 2.394.602 2.442 2.256l.003.189V32.5h-5.973V12.583h3.528-3.528zm-10 0V32.5h-5.977V15.028c0-1.734.637-2.397 2.252-2.442l.184-.003h3.54zM69.77 23.207a16.12 16.12 0 0 0-3.54.991c-1.138.441-1.458 1.092-1.458 2.63 0 1.537.45 2.1 1.546 2.1 1.028 0 2.229-.58 3.25-1.556l.202-.2v-3.965zM13.037 12.039l-3.05 9.963h5.734l-2.684-9.963zm39.22-6.623c2.31 0 3.658 1.1 3.658 2.919 0 1.848-1.382 2.94-3.659 2.94-2.276 0-3.666-1.122-3.666-2.94 0-1.819 1.356-2.92 3.666-2.92z"></path></svg>