<svg xmlns="http://www.w3.org/2000/svg" viewBox="0 0 119 53.333" class="$layout/baseline:exact layout/height:baseline:2.5"><path fill="#FF0300" d="M65.996 0h53v53h-53z"></path><path fill="#FFF" d="M78.47 28.378h.014a5.576 5.576 0 0 1 5.565 5.309l.007.277v5.57a5.538 5.538 0 0 1-1.468 3.76l-.194.2 1.662 4.969h-3.37l-1.142-3.453c-.354.068-.714.1-1.074.096a5.571 5.571 0 0 1-5.574-5.295l-.007-.276v-5.571a5.576 5.576 0 0 1 5.304-5.58l.277-.006h.014zm12.877-.005V41.76h7.806v3.346H88V28.373h3.347zm15.557.005a5.576 5.576 0 0 1 5.572 5.586v5.57a5.581 5.581 0 0 1-11.157 0v-5.57a5.59 5.59 0 0 1 5.585-5.586zM77.335 31.95a2.225 2.225 0 0 0-1.081 1.838l.001.175v5.57a2.225 2.225 0 1 0 4.446.176l-.001-.175v-5.571a2.225 2.225 0 0 0-3.365-2.013zm29.57-.217a2.23 2.23 0 0 0-2.23 2.23v5.57a2.23 2.23 0 1 0 4.459 0v-5.57a2.23 2.23 0 0 0-2.23-2.23zM76.26 7.232v11.157a2.225 2.225 0 1 0 4.444 0V7.232h3.371l-.034 11.157a5.576 5.576 0 0 1-11.152 0V7.232h3.37zm32.11-.005V23.96h-3.336V7.227h3.337zm-17.023.005l4.459 9.558V7.232h3.347V23.96h-3.347l-4.459-9.558v9.558H88V7.232h3.347z"></path><path fill="#FF0300" d="M0 0h53v53H0z"></path><path fill="#FFF" d="M44.953 28.993V45.03H30.037V28.993h14.916zm-22.107-.005l-3.314 16.043H6.258l.669-3.318h9.97l1.952-9.397h-6.656l-.998 4.703H7.882l1.69-8.031h13.274zm18.789 3.328h-8.29v9.397h8.29v-9.397zM19.332 6.976v12.725h3.514v3.309H7.929V19.7h8.08v-9.405H9.772V6.976h9.56zm25.626 12.72v3.309H30.04v-3.309h14.917zm-1.662-12.72v3.314H31.694V6.976h11.602z"></path></svg>