<svg xmlns="http://www.w3.org/2000/svg" viewBox="0 0 64 64" class="$layout/baseline:exact layout/height:baseline:3"><defs><style type="text/css"> .has-dark-background .vw {fill: #fff;}</style></defs><path class="vw" fill="#001E50" d="M32 60.008c-15.308 0-27.895-12.7-27.895-28.008 0-3.175.567-6.237 1.588-9.185l16.328 31.75c.227.454.454.794 1.021.794s.794-.34 1.02-.794L31.66 37.67c.113-.227.227-.34.34-.34.227 0 .227.226.34.34l7.71 16.895c.228.454.454.794 1.021.794s.794-.34 1.021-.794l16.329-31.75A26.934 26.934 0 0 1 60.008 32C59.895 47.308 47.308 60.008 32 60.008zm0-35.265c-.227 0-.227-.227-.34-.34L22.929 5.579A26.767 26.767 0 0 1 32 3.992c3.175 0 6.237.567 9.071 1.587l-8.73 18.824c-.114.113-.114.34-.341.34zm-9.185 20.41c-.227 0-.227-.226-.34-.34L8.187 17.373c2.495-4.083 6.124-7.485 10.32-9.866l10.09 21.773c.227.453.454.567.794.567h5.216c.34 0 .567-.114.794-.567L45.38 7.507c4.196 2.381 7.824 5.783 10.32 9.865L41.524 44.813c-.113.227-.227.34-.34.34-.227 0-.227-.226-.34-.34l-5.443-12.02c-.227-.453-.454-.566-.794-.566h-5.216c-.34 0-.567.113-.794.567l-5.443 12.02c-.113.113-.113.34-.34.34zM32 63.75c17.576 0 31.75-14.174 31.75-31.75S49.576.25 32 .25.25 14.424.25 32 14.424 63.75 32 63.75z"></path></svg>