<svg xmlns="http://www.w3.org/2000/svg" viewBox="0 0 161 32" class="$layout/baseline:exact layout/height:baseline:1.5"><path d="M8.636 0h143.728c4.675 0 8.495 3.738 8.632 8.386l.004.259v23.09h-2.646V8.645c0-3.102-2.692-5.88-5.774-6.005l-.216-.004H8.636c-3.098 0-5.861 2.707-5.985 5.793l-.005.216v23.09H0V8.645C0 3.965 3.735.14 8.377.004L8.637 0h143.727H8.636zM32.46 14.214c.206 0 .35.124.35.393v8.727c0 .248.103.372.391.372h3.77c.247 0 .412-.124.412-.372v-8.727c0-.27.103-.393.35-.393h2.06c.226 0 .37.124.37.393V27.78c0 .331-.103.641-.247.951l-1.4 2.295c-.124.207-.31.331-.516.331h-.267c-.247 0-.35-.144-.35-.371v-5.832c0-.249-.144-.352-.371-.29l-3.955 1.117c-.185.041-.412.041-.597.041-1.586 0-2.41-1.282-2.41-2.378v-9.037c0-.27.103-.393.35-.393h2.06zm12.907 0c.185 0 .33.125.33.393v8.727c0 .248.123.352.411.352h3.77c.247 0 .412-.104.412-.352v-8.727c0-.268.082-.393.33-.393h2.059c.227 0 .37.125.37.393v10.899c0 .227-.143.31-.37.31h-2.06c-.247 0-.329-.083-.329-.331v-.331c0-.239-.13-.347-.318-.31l-4.028 1.096c-.206.062-.433.062-.639.062a2.386 2.386 0 0 1-2.368-2.378v-9.017c0-.268.103-.393.35-.393h2.08zm45.197 0c.227 0 .35.124.35.393v10.899c0 .227-.123.31-.35.31h-2.1c-.228 0-.31-.083-.31-.331v-.331c0-.269-.144-.372-.411-.29l-3.956 1.076c-.226.062-.412.062-.618.062-1.297 0-2.388-1.055-2.388-2.378v-5.212c0-1.116.473-1.964 1.44-2.502l2.205-1.282a2.53 2.53 0 0 1 1.422-.414h4.716zm34.118 0c.227 0 .35.124.35.393v10.899c0 .227-.123.31-.35.31h-2.1c-.227 0-.31-.083-.31-.331v-.331c0-.269-.144-.372-.411-.29l-3.955 1.076c-.227.062-.413.062-.618.062-1.298 0-2.39-1.055-2.39-2.378v-5.212c0-1.116.474-1.964 1.442-2.502l2.204-1.282a2.53 2.53 0 0 1 1.422-.414h4.716zm20.868-5.036c.247 0 .35.165.35.393v15.924c0 .227-.103.31-.35.31h-2.1c-.207 0-.31-.083-.31-.33v-.332c0-.268-.124-.372-.391-.289l-3.975 1.075c-.17.047-.317.058-.467.061l-.151.001c-1.071.042-2.39-.951-2.39-2.378v-5.21c0-1.048.417-1.86 1.283-2.4l2.363-1.386c.453-.29.906-.414 1.442-.414h1.895c.267 0 .391-.103.391-.35V9.57c0-.228.103-.393.31-.393h2.1zm-67.478 0c.247 0 .35.165.35.393v15.924c0 .227-.103.31-.35.31h-2.1c-.206 0-.31-.083-.31-.33v-.332c0-.268-.123-.372-.391-.289l-3.975 1.075c-.17.047-.317.058-.467.061l-.151.001c-1.071.042-2.39-.951-2.39-2.378v-5.21c0-1.048.417-1.86 1.284-2.4l2.362-1.386c.454-.29.907-.414 1.442-.414h1.895c.268 0 .392-.103.392-.35V9.57c0-.228.103-.393.308-.393h2.101zm-14.546 4.85c1.36 0 2.41 1.137 2.41 2.42v9.057c0 .227-.144.31-.371.31h-2.06c-.247 0-.329-.083-.329-.33v-8.728c0-.268-.165-.413-.412-.413h-3.77c-.288 0-.411.145-.411.413v8.728c0 .247-.144.33-.33.33h-2.08c-.247 0-.35-.083-.35-.31V14.607c0-.27.103-.393.35-.393h2.08c.186 0 .33.124.33.393v.351c0 .228.103.331.411.249l3.934-1.076.3-.067c.097-.02.195-.036.298-.036zm71.455.061c.227 0 .37.125.37.352v1.593c0 .206-.143.31-.37.31h-4.058c-.268 0-.37.144-.37.413v8.727c0 .248-.166.33-.372.33h-2.08c-.247 0-.33-.082-.33-.31V14.607c0-.268.083-.392.33-.392h2.08c.206 0 .371.124.371.392v.331c0 .228.103.331.37.331.063 0 .145 0 .227-.042l1.195-.785a2.956 2.956 0 0 1 1.421-.352h1.216zm-22.44-3.48c.248 0 .372.123.372.372v1.509c0 .228-.124.331-.371.331h-7.147c-.247 0-.35.145-.35.414v9.968c0 .269.103.393.35.393h7.353c.227 0 .371.103.371.31a.582.582 0 0 1-.33.538l-1.77.992a2.9 2.9 0 0 1-1.463.372h-4.45c-1.462 0-3.007-1.054-3.007-2.978v-7.837c0-1.158.495-2.048 1.504-2.647l2.41-1.344a2.73 2.73 0 0 1 1.421-.394h5.108zm-94.97-.002c.227 0 .372.125.372.352v5.625c0 .269.144.393.391.393h5.623c.268 0 .453-.124.453-.393V10.96c0-.227.083-.352.33-.352h2.142c.247 0 .391.125.391.352v14.538c0 .228-.144.31-.39.31h-2.144c-.246 0-.329-.082-.329-.33v-5.853c0-.269-.185-.414-.453-.414h-5.623c-.247 0-.391.145-.391.414v5.852c0 .25-.145.331-.371.331h-2.183c-.206 0-.289-.082-.289-.31V10.96c0-.227.083-.352.289-.352h2.183zm78.525 3.596c.206 0 .35.125.35.394v10.898c0 .227-.144.31-.35.31h-2.06c-.268 0-.35-.083-.35-.31V14.597c0-.27.082-.394.35-.394h2.06zm25.765 2.141h-3.81c-.29 0-.392.145-.392.435v6.555c0 .248.103.352.391.352h3.81c.268 0 .413-.104.413-.352V16.78c0-.29-.145-.435-.412-.435zm-34.118 0h-3.811c-.288 0-.391.145-.391.435v6.555c0 .248.103.352.391.352h3.81c.268 0 .412-.104.412-.352V16.78c0-.29-.144-.435-.411-.435zm54.985-.01h-3.81c-.289 0-.392.144-.392.434v6.555c0 .249.103.352.392.352h3.81c.288 0 .412-.103.412-.352v-6.555c0-.29-.124-.435-.412-.435zm-67.478 0h-3.81c-.288 0-.391.144-.391.434v6.555c0 .249.103.352.391.352h3.81c.289 0 .413-.103.413-.352v-6.555c0-.29-.124-.435-.413-.435zm20.846-7.155c.206 0 .35.165.35.392v1.696c0 .248-.144.331-.35.331h-2.06c-.268 0-.35-.083-.35-.331V9.57c0-.227.082-.392.35-.392h2.06z"></path></svg>